<svg width="19" height="19" viewBox="0 0 19 19" fill="none" xmlns="http://www.w3.org/2000/svg">
<g clip-path="url(#clip0)">
<path d="M3.73744 10.1968C3.25214 11.1508 3.80314 11.6068 5.06031 12.3858C6.12906 13.046 7.60552 13.2875 8.55394 13.3841C8.16523 13.7578 9.94648 12.0446 4.81648 16.979C3.72873 18.0217 5.47989 19.6945 6.56685 18.674L9.50948 15.8359C10.636 16.9197 11.7159 17.9583 12.4521 18.678C13.5399 19.7024 15.2902 18.0438 14.2144 16.983C14.1336 16.9062 10.2267 13.1585 10.465 13.388C11.4253 13.2915 12.8796 13.0358 13.9357 12.3898L13.9349 12.389C15.1921 11.606 15.7431 11.1508 15.2649 10.1968C14.9759 9.65534 14.1969 9.2025 13.1599 9.98546C13.1599 9.98546 11.7594 11.0582 9.50077 11.0582C7.24135 11.0582 5.84169 9.98546 5.84169 9.98546C4.80539 9.19854 4.02323 9.65534 3.73744 10.1968Z" fill="white"/>
<path d="M9.49918 9.61242C12.2526 9.61242 14.5009 7.46067 14.5009 4.81175C14.5009 2.15175 12.2526 0 9.49918 0C6.74498 0 4.49664 2.15175 4.49664 4.81175C4.49664 7.46067 6.74498 9.61242 9.49918 9.61242ZM9.49918 2.43754C10.8521 2.43754 11.9557 3.49917 11.9557 4.81175C11.9557 6.11325 10.8521 7.17487 9.49918 7.17487C8.14623 7.17487 7.04264 6.11325 7.04264 4.81175C7.04185 3.49838 8.14543 2.43754 9.49918 2.43754Z" fill="white"/>
</g>
<defs>
<clipPath id="clip0">
<rect width="19" height="19" fill="white"/>
</clipPath>
</defs>
</svg>
