<svg width="26" height="20" viewBox="0 0 26 20" fill="none" xmlns="http://www.w3.org/2000/svg">
<path d="M23.904 19.2415H2.09596C0.940668 19.2415 0 18.3017 0 17.1455V2.85359C0 1.69746 0.940668 0.757629 2.09596 0.757629H23.904C25.0593 0.757629 26 1.69746 26 2.85359V17.1455C26 18.3017 25.0593 19.2415 23.904 19.2415ZM2.09596 1.59601C1.40262 1.59601 0.838385 2.16025 0.838385 2.85359V17.1455C0.838385 17.8389 1.40262 18.4031 2.09596 18.4031H23.904C24.5974 18.4031 25.1616 17.8389 25.1616 17.1455V2.85359C25.1616 2.16025 24.5974 1.59601 23.904 1.59601H2.09596Z" fill="#E65100"/>
<path d="M13 12.106C12.4425 12.106 11.8849 11.9207 11.4607 11.551L0.746993 2.21388C0.572609 2.0613 0.554164 1.79721 0.70675 1.62282C0.859336 1.44676 1.12427 1.42999 1.29865 1.58174L12.0115 10.9188C12.5481 11.3858 13.4536 11.385 13.9884 10.9188L24.6988 1.58258C24.8724 1.42915 25.1365 1.44676 25.2907 1.62366C25.4433 1.79804 25.4249 2.06214 25.2505 2.21472L14.5393 11.5501C14.115 11.9207 13.5575 12.106 13 12.106Z" fill="#E65100"/>
</svg>
