<svg width="22" height="22" viewBox="0 0 22 22" fill="none" xmlns="http://www.w3.org/2000/svg">
<path d="M21.4229 16.9716L16.9701 14.002C16.405 13.6282 15.6475 13.7512 15.2297 14.2847L13.9327 15.9524C13.766 16.1722 13.463 16.2359 13.2218 16.102L12.9751 15.966C12.1572 15.5202 11.1395 14.9651 9.08901 12.9139C7.03854 10.8627 6.48239 9.84426 6.03657 9.02785L5.90128 8.78112C5.76548 8.54001 5.82803 8.23571 6.04791 8.06768L7.71451 6.77099C8.24776 6.35318 8.37093 5.59593 7.99755 5.03067L5.02799 0.577794C4.64532 0.00218443 3.87758 -0.17061 3.28518 0.185505L1.42314 1.30403C0.838083 1.64799 0.408846 2.20504 0.225439 2.85845C-0.445075 5.30155 0.0593463 9.51796 6.2705 15.7299C11.2113 20.6703 14.8896 21.9989 17.4177 21.9989C17.9996 22.0014 18.5791 21.9257 19.1408 21.7738C19.7944 21.5906 20.3515 21.1614 20.6952 20.5761L21.8149 18.7152C22.1715 18.1227 21.9988 17.3545 21.4229 16.9716ZM21.1832 18.339L20.0661 20.2011C19.8193 20.6235 19.4186 20.9341 18.9479 21.0678C16.6925 21.687 12.7522 21.1741 6.78923 15.2111C0.826268 9.24816 0.313426 5.30817 0.932643 3.05243C1.06651 2.58122 1.37748 2.17999 1.8004 1.93278L3.66243 0.81572C3.91947 0.661055 4.25269 0.736025 4.41874 0.985808L6.03185 3.40764L7.38576 5.4383C7.5479 5.68349 7.49463 6.01211 7.26332 6.19354L5.59634 7.49023C5.08904 7.87813 4.94417 8.58001 5.25651 9.13706L5.38887 9.37756C5.85742 10.2369 6.43995 11.3059 8.56667 13.4323C10.6934 15.5586 11.7621 16.1412 12.621 16.6097L12.8619 16.7424C13.4189 17.0547 14.1208 16.9099 14.5087 16.4026L15.8054 14.7356C15.9869 14.5044 16.3154 14.4512 16.5606 14.6132L21.0131 17.5827C21.2631 17.7487 21.3381 18.082 21.1832 18.339Z" fill="#E65100"/>
<path d="M12.4662 3.66856C15.9067 3.67238 18.6948 6.46051 18.6986 9.90098C18.6986 10.1035 18.8627 10.2676 19.0652 10.2676C19.2677 10.2676 19.4318 10.1035 19.4318 9.90098C19.4276 6.05572 16.3115 2.93957 12.4662 2.93536C12.2637 2.93536 12.0996 3.09948 12.0996 3.30196C12.0996 3.50444 12.2637 3.66856 12.4662 3.66856Z" fill="#E65100"/>
<path d="M12.4662 5.86827C14.6923 5.87089 16.4963 7.67488 16.499 9.90102C16.499 10.1035 16.6631 10.2676 16.8656 10.2676C17.068 10.2676 17.2322 10.1035 17.2322 9.90102C17.2291 7.27009 15.0971 5.13808 12.4662 5.13507C12.2637 5.13507 12.0996 5.29919 12.0996 5.50167C12.0996 5.70415 12.2637 5.86827 12.4662 5.86827Z" fill="#E65100"/>
<path d="M12.4662 8.06791C13.4781 8.06912 14.298 8.8891 14.2993 9.90099C14.2993 10.1035 14.4634 10.2676 14.6659 10.2676C14.8683 10.2676 15.0325 10.1035 15.0325 9.90099C15.0308 8.48435 13.8828 7.33631 12.4662 7.33472C12.2637 7.33472 12.0996 7.49883 12.0996 7.70131C12.0996 7.9038 12.2637 8.06791 12.4662 8.06791Z" fill="#E65100"/>
</svg>
