<svg width="17" height="15" viewBox="0 0 17 15" fill="none" xmlns="http://www.w3.org/2000/svg">
<path d="M16.4344 2.89448C16.0951 2.53896 15.6264 2.32889 15.0932 2.32889H12.4106V2.29657C12.4106 1.89258 12.2491 1.50474 11.9743 1.24619C11.6996 0.971472 11.3279 0.809875 10.924 0.809875H6.07605C5.65589 0.809875 5.28422 0.971472 5.00951 1.24619C4.73479 1.5209 4.57319 1.89258 4.57319 2.29657V2.32889H1.90684C1.37357 2.32889 0.904943 2.53896 0.565589 2.89448C0.226236 3.23383 0 3.71862 0 4.23573V12.2833C0 12.8165 0.210076 13.2852 0.565589 13.6245C0.904943 13.9639 1.38973 14.1901 1.90684 14.1901H15.0932C15.6264 14.1901 16.0951 13.98 16.4344 13.6245C16.7738 13.2852 17 12.8004 17 12.2833V4.23573C17 3.70246 16.7899 3.23383 16.4344 2.89448ZM16.1597 12.2833H16.1435C16.1435 12.5741 16.0304 12.8327 15.8365 13.0266C15.6426 13.2205 15.384 13.3336 15.0932 13.3336H1.90684C1.61597 13.3336 1.35741 13.2205 1.1635 13.0266C0.969582 12.8327 0.856464 12.5741 0.856464 12.2833V4.23573C0.856464 3.94486 0.969582 3.6863 1.1635 3.49238C1.35741 3.29847 1.61597 3.18535 1.90684 3.18535H5.02567C5.26806 3.18535 5.46198 2.99143 5.46198 2.74904V2.28041C5.46198 2.10265 5.52662 1.94105 5.63973 1.82794C5.75285 1.71482 5.91445 1.65018 6.09221 1.65018H10.924C11.1017 1.65018 11.2633 1.71482 11.3764 1.82794C11.4895 1.94105 11.5542 2.10265 11.5542 2.28041V2.74904C11.5542 2.99143 11.7481 3.18535 11.9905 3.18535H15.1093C15.4002 3.18535 15.6587 3.29847 15.8527 3.49238C16.0466 3.6863 16.1597 3.94486 16.1597 4.23573V12.2833Z" fill="white"/>
<path d="M8.50019 4.28424C7.40133 4.28424 6.39943 4.73671 5.6884 5.44774C4.96121 6.17492 4.5249 7.16066 4.5249 8.25952C4.5249 9.35838 4.97737 10.3603 5.6884 11.0713C6.41559 11.7985 7.40133 12.2348 8.50019 12.2348C9.59905 12.2348 10.6009 11.7823 11.312 11.0713C12.0392 10.3441 12.4755 9.35838 12.4755 8.25952C12.4755 7.16066 12.023 6.15876 11.312 5.44774C10.6009 4.73671 9.59905 4.28424 8.50019 4.28424ZM10.6979 10.4734C10.1323 11.0228 9.35665 11.3783 8.50019 11.3783C7.64372 11.3783 6.86806 11.0228 6.30247 10.4734C5.73688 9.90781 5.39753 9.13215 5.39753 8.27568C5.39753 7.41922 5.75304 6.64355 6.30247 6.07797C6.86806 5.51238 7.64372 5.17302 8.50019 5.17302C9.35665 5.17302 10.1323 5.52854 10.6979 6.07797C11.2635 6.64355 11.6029 7.41922 11.6029 8.27568C11.619 9.13215 11.2635 9.90781 10.6979 10.4734Z" fill="white"/>
<path d="M14.253 5.85172C14.6903 5.85172 15.0448 5.4972 15.0448 5.05989C15.0448 4.62258 14.6903 4.26807 14.253 4.26807C13.8157 4.26807 13.4612 4.62258 13.4612 5.05989C13.4612 5.4972 13.8157 5.85172 14.253 5.85172Z" fill="white"/>
</svg>
