<svg width="70" height="64" viewBox="0 0 70 64" fill="none" xmlns="http://www.w3.org/2000/svg">
<path d="M46.6644 48.5723V50.2309C46.6644 50.8078 46.2324 51.2405 45.6564 51.2405H43.1364C42.5604 51.2405 42.1284 50.8078 42.1284 50.2309V48.5723C42.1284 47.9953 42.5604 47.5626 43.1364 47.5626H45.6564C46.2324 47.6348 46.6644 48.0675 46.6644 48.5723ZM49.8324 33.1396C48.6084 32.0578 46.9524 31.553 44.8644 31.553C42.9204 31.553 41.3364 31.9857 40.1124 32.9232C39.0324 33.7165 38.4564 34.9425 38.3844 36.4569C38.3844 36.8175 38.6724 37.1059 39.0324 37.1059L41.9124 37.178C42.3444 37.178 42.7764 36.8896 42.9204 36.4569C42.9924 36.0963 43.2084 35.8078 43.4244 35.5915C43.8564 35.2309 44.2884 35.0146 44.9364 35.0146C45.6564 35.0146 46.2324 35.2309 46.6644 35.6636C47.0964 36.0963 47.2404 36.6732 47.2404 37.4665C47.2404 38.1876 47.0964 38.8367 46.7364 39.3415C46.3764 39.8463 45.9444 40.3511 45.3684 40.7117C44.2164 41.505 43.4244 42.2261 42.9924 42.8751C42.6324 43.38 42.4164 44.029 42.3444 44.8944C42.2724 45.3271 42.6324 45.6155 43.0644 45.6155H46.1604C46.5204 45.6155 46.8084 45.3271 46.8804 44.9665C46.9524 44.5338 47.0244 44.1732 47.1684 43.8126C47.3844 43.38 47.7444 42.9473 48.3204 42.5867C49.3284 42.0819 50.1924 41.2886 50.8404 40.4232C51.4884 39.4857 51.8484 38.4761 51.8484 37.3944C51.6324 35.6636 51.0564 34.2213 49.8324 33.1396ZM2.67239 37.5386C1.73639 38.1876 1.23239 39.3415 1.52039 40.4232C1.73639 41.505 2.67239 42.3703 3.82439 42.5146C4.61639 42.6588 5.40839 42.6588 6.20039 42.6588C8.57639 42.6588 10.7364 42.154 12.6084 41.2886C13.8324 41.9376 15.1284 42.4425 16.4964 42.8751C16.4964 42.5867 16.4964 42.2982 16.4964 42.0098C16.4964 40.7838 16.5684 39.63 16.7844 38.4761C15.7044 38.0434 14.6964 37.6107 13.6884 37.0338L12.5364 36.3848L11.4564 37.0338C10.3764 37.6828 9.15239 38.1155 7.78439 38.3319C8.43239 37.4665 8.93639 36.529 9.29639 35.5194L9.72838 34.2934L8.86439 33.3559C5.98439 30.255 4.47239 26.505 4.47239 22.5386C4.47239 12.9473 13.5444 5.08669 24.6324 5.08669C33.1284 5.08669 40.4004 9.62996 43.3524 16.0482C44.0724 15.9761 44.7924 15.9761 45.5124 15.9761C46.3044 15.9761 47.0964 16.0482 47.9604 16.0482C44.8644 7.17803 35.5764 0.759766 24.7044 0.759766C11.2404 0.759766 0.296387 10.4953 0.296387 22.4665C0.296387 27.0098 1.88039 31.4088 4.90439 35.0867C4.32839 36.0963 3.60839 36.9617 2.67239 37.5386ZM69.7044 41.3607C69.7044 45.9761 68.0484 50.4473 65.0244 54.1973C65.6004 55.2069 66.3204 56.0723 67.2564 56.6492C68.1924 57.2982 68.6964 58.4521 68.4084 59.5338C68.1924 60.6876 67.2564 61.4809 66.1044 61.6251C65.3124 61.7694 64.5204 61.7694 63.7284 61.7694C61.3524 61.7694 59.1924 61.2646 57.1764 60.3271C53.4324 62.2021 49.2564 63.2117 44.9364 63.2117C31.3284 63.2117 20.2404 53.3319 20.2404 41.2886C20.2404 29.2453 31.4004 19.4376 45.0084 19.4376C58.6164 19.4376 69.7044 29.2453 69.7044 41.3607ZM65.4564 41.3607C65.4564 31.6252 56.3124 23.6925 45.0084 23.6925C33.7044 23.6925 24.5604 31.6252 24.5604 41.3607C24.5604 51.0963 33.7044 59.029 45.0084 59.029C49.0404 59.029 52.8564 58.0194 56.2404 56.1444L57.3204 55.4953L58.4004 56.1444C59.5524 56.7934 60.7764 57.2261 62.1444 57.4425C61.4964 56.5771 60.9924 55.5675 60.6324 54.5578L60.2004 53.3319L61.0644 52.3944C63.9444 49.2213 65.4564 45.3992 65.4564 41.3607Z" fill="white"/>
</svg>
