<svg width="43" height="43" viewBox="0 0 43 43" fill="none" xmlns="http://www.w3.org/2000/svg">
<path d="M25.5685 6.38347C25.5685 4.13647 23.747 2.31497 21.5 2.31497C19.253 2.31497 17.4315 4.13647 17.4315 6.38347V19.9451C13.6884 19.9496 10.6552 22.9829 10.6507 26.726V33.9828L16.0753 40.7637V43H18.7877V39.8116L13.363 33.0308V26.726C13.363 24.479 15.1845 22.6575 17.4315 22.6575V32.1507H20.1438V6.38347C20.1438 5.63445 20.751 5.02731 21.5 5.02731C22.249 5.02731 22.8562 5.63445 22.8562 6.38347V18.2689L27.2908 19.4786L28.0042 16.8612L25.5631 16.1967L25.5685 6.38347Z" fill="#1565C0"/>
<path d="M29.9073 20.1994L32.5242 20.9124L33.2372 18.2956L30.6204 17.5825L29.9073 20.1994Z" fill="#1565C0"/>
<path d="M35.1417 21.6187L37.774 22.3374V34.4114L33.7055 39.8361V43H36.4179V40.7393L40.4864 35.3146V20.2652L35.8551 19.0026L35.1417 21.6187Z" fill="#1565C0"/>
<path d="M7.54098 1.91762L5.62336 0L0.59605 5.02731L5.62336 10.0546L7.54098 8.137L5.78746 6.38348H9.29451V3.67114H5.78746L7.54098 1.91762Z" fill="#1565C0"/>
<path d="M14.7192 3.67114H12.0068V6.38348H14.7192V3.67114Z" fill="#1565C0"/>
<path d="M35.4591 8.137L37.3767 10.0546L42.404 5.02731L37.3767 0L35.4591 1.91762L37.2126 3.67114H33.7055V6.38348H37.2126L35.4591 8.137Z" fill="#1565C0"/>
<path d="M30.9932 3.67114H28.2809V6.38348H30.9932V3.67114Z" fill="#1565C0"/>
</svg>
