<svg width="61" height="67" viewBox="0 0 61 67" fill="none" xmlns="http://www.w3.org/2000/svg">
<path d="M60.3262 53.9893L54.4852 50.3993V22.9351C54.4852 22.4092 54.1918 21.9271 53.7245 21.6857L31.9853 10.4561V2.03125C31.9853 1.25458 31.3556 0.625 30.579 0.625C29.8025 0.625 29.1728 1.25458 29.1728 2.03125V10.4561L7.43375 21.6857C6.96631 21.9271 6.67283 22.4092 6.67283 22.9351V50.3993L0.831841 53.9894C0.170202 54.3961 -0.0365165 55.2622 0.37017 55.9239C0.63581 56.3559 1.09706 56.5939 1.56956 56.5939C1.82071 56.5939 2.07496 56.5266 2.3046 56.3855L8.08414 52.8332L29.8198 66.7774C30.0511 66.9258 30.3151 67 30.579 67C30.844 67 31.1088 66.9254 31.3407 66.7759L53.0738 52.8332L58.8535 56.3855C59.0831 56.5267 59.3372 56.5939 59.5885 56.5939C60.0609 56.5939 60.5224 56.3559 60.7879 55.9239C61.1946 55.2621 60.9879 54.3961 60.3262 53.9893ZM29.1728 63.0208L10.7443 51.1982L24.0789 43.0023C24.7404 42.5956 24.9473 41.7295 24.5406 41.0678C24.1339 40.4061 23.2677 40.1996 22.6062 40.6062L9.48532 48.6706V25.6278L29.1728 37.4219V63.0208ZM30.579 34.9857L10.7781 23.1237L29.1728 13.6217V28.1875C29.1728 28.9641 29.8025 29.5937 30.579 29.5937C31.3556 29.5937 31.9853 28.9641 31.9853 28.1875V13.6217L50.38 23.1237L30.579 34.9857ZM51.6727 48.6706L38.5519 40.606C37.8905 40.1993 37.0244 40.4062 36.6175 41.0677C36.2108 41.7293 36.4175 42.5954 37.0791 43.0021L50.4137 51.198L31.9853 63.0206V37.4217L51.6727 25.6277V48.6706Z" fill="#1565C0"/>
</svg>
