<svg width="23" height="15" viewBox="0 0 23 15" fill="none" xmlns="http://www.w3.org/2000/svg">
<path d="M22.8781 12.7896C22.8502 12.7295 22.8243 12.6798 22.8001 12.6399C22.4011 11.9212 21.6385 11.039 20.5129 9.99316L20.4891 9.96921L20.4772 9.95747L20.4652 9.94543H20.4531C19.9422 9.45842 19.6187 9.13097 19.4832 8.96332C19.2353 8.64397 19.1798 8.32071 19.3153 7.99317C19.411 7.74571 19.7705 7.22309 20.3931 6.42462C20.7205 6.00145 20.9798 5.66229 21.1714 5.40677C22.5526 3.57049 23.1514 2.39708 22.9677 1.88609L22.8964 1.76668C22.8484 1.69478 22.7247 1.62902 22.5253 1.56904C22.3255 1.50918 22.0701 1.49929 21.7587 1.53917L18.3099 1.563C18.2541 1.5432 18.1743 1.54505 18.0704 1.56904C17.9665 1.59303 17.9146 1.60507 17.9146 1.60507L17.8546 1.63506L17.8069 1.67109C17.767 1.69491 17.7231 1.73681 17.6752 1.79671C17.6275 1.85639 17.5876 1.92644 17.5557 2.00626C17.1802 2.97225 16.7533 3.87039 16.2742 4.70062C15.9788 5.19567 15.7075 5.62471 15.4598 5.98798C15.2123 6.35113 15.0047 6.61869 14.8372 6.79019C14.6695 6.96187 14.518 7.0994 14.3821 7.20329C14.2463 7.30723 14.1426 7.35115 14.0709 7.33508C13.9989 7.31902 13.9312 7.30308 13.8671 7.28714C13.7554 7.21525 13.6655 7.11748 13.5978 6.99375C13.5298 6.87001 13.484 6.71428 13.46 6.52666C13.4362 6.33892 13.4221 6.17744 13.4181 6.04167C13.4143 5.90607 13.4161 5.71426 13.4242 5.4668C13.4325 5.2192 13.4362 5.05168 13.4362 4.96385C13.4362 4.66043 13.4421 4.33114 13.454 3.97588C13.4661 3.62062 13.4758 3.33913 13.484 3.13176C13.4921 2.92419 13.4959 2.70457 13.4959 2.47304C13.4959 2.24152 13.4818 2.05994 13.454 1.92816C13.4265 1.79654 13.3842 1.66878 13.3286 1.54492C13.2726 1.42119 13.1906 1.32547 13.0831 1.25752C12.9753 1.18966 12.8414 1.1358 12.6819 1.09579C12.2588 1.00003 11.7199 0.948234 11.0651 0.94018C9.58029 0.924242 8.62621 1.02012 8.20308 1.2277C8.03543 1.31541 7.88372 1.43524 7.74808 1.58682C7.60434 1.76252 7.58429 1.85841 7.68806 1.87418C8.16714 1.94594 8.50629 2.11762 8.7059 2.38903L8.77783 2.53286C8.83378 2.63662 8.88965 2.82034 8.94556 3.08374C9.00139 3.34714 9.03742 3.63853 9.05327 3.95771C9.09312 4.5406 9.09312 5.03956 9.05327 5.45463C9.0133 5.86987 8.97555 6.19313 8.93952 6.42466C8.90349 6.65619 8.84964 6.8438 8.77783 6.98745C8.7059 7.13115 8.65804 7.21898 8.63405 7.25086C8.6101 7.28274 8.59014 7.30283 8.57428 7.31071C8.47051 7.35047 8.36259 7.37073 8.2509 7.37073C8.13903 7.37073 8.00339 7.31478 7.84375 7.20296C7.68416 7.09114 7.51852 6.93754 7.34685 6.74192C7.17517 6.54625 6.98156 6.27282 6.76593 5.92159C6.55047 5.57035 6.32691 5.15524 6.09538 4.67625L5.90383 4.32887C5.78408 4.1054 5.6205 3.78 5.41292 3.35297C5.20522 2.92578 5.02163 2.51255 4.86204 2.11338C4.79824 1.94573 4.7024 1.8181 4.57468 1.73027L4.51475 1.69424C4.4749 1.66236 4.41094 1.62851 4.32319 1.59244C4.23532 1.55641 4.14363 1.53058 4.04775 1.51468L0.766558 1.5385C0.431262 1.5385 0.203761 1.61446 0.0839707 1.76617L0.0360294 1.83794C0.0120797 1.87791 0 1.94175 0 2.02962C0 2.11745 0.0239497 2.22524 0.071891 2.35288C0.550885 3.47864 1.07178 4.56434 1.63458 5.61016C2.19737 6.65598 2.68643 7.49841 3.10146 8.1367C3.51658 8.77546 3.9397 9.37831 4.37084 9.94497C4.80197 10.5118 5.08736 10.8751 5.22699 11.0347C5.36678 11.1946 5.47659 11.3141 5.55641 11.3939L5.85584 11.6813C6.04744 11.8729 6.3288 12.1025 6.70004 12.3698C7.07136 12.6374 7.48245 12.9008 7.93351 13.1605C8.38465 13.4197 8.90949 13.6313 9.50832 13.7949C10.1071 13.9587 10.6898 14.0244 11.2567 13.9927H12.6339C12.9132 13.9686 13.1248 13.8808 13.2686 13.7292L13.3162 13.6692C13.3483 13.6215 13.3783 13.5475 13.406 13.4479C13.434 13.3481 13.4479 13.2382 13.4479 13.1186C13.4397 12.7753 13.4658 12.466 13.5256 12.1906C13.5853 11.9153 13.6533 11.7077 13.7294 11.5679C13.8054 11.4283 13.8912 11.3104 13.9867 11.2148C14.0825 11.1191 14.1507 11.0611 14.1907 11.0411C14.2304 11.021 14.2622 11.0074 14.2861 10.9992C14.4777 10.9354 14.7032 10.9972 14.9629 11.185C15.2224 11.3726 15.4658 11.6042 15.6935 11.8796C15.921 12.1551 16.1944 12.4643 16.5137 12.8075C16.8332 13.1509 17.1125 13.4061 17.3519 13.574L17.5914 13.7177C17.7512 13.8136 17.9588 13.9014 18.2143 13.9812C18.4694 14.061 18.6929 14.081 18.8848 14.0411L21.9503 13.9933C22.2535 13.9933 22.4894 13.9431 22.6568 13.8434C22.8245 13.7437 22.9241 13.6337 22.9562 13.5141C22.9883 13.3944 22.99 13.2586 22.9623 13.1068C22.9339 12.9553 22.9059 12.8494 22.8781 12.7896Z" fill="white"/>
</svg>
