<svg width="35" height="35" viewBox="0 0 35 35" fill="none" xmlns="http://www.w3.org/2000/svg">
<path d="M19.1518 13.216H15.187V9.25119C15.187 8.88643 14.8909 8.59039 14.5262 8.59039C14.1614 8.59039 13.8654 8.88643 13.8654 9.25119V13.216H9.90055C9.53579 13.216 9.23975 13.512 9.23975 13.8768C9.23975 14.2416 9.53579 14.5376 9.90055 14.5376H13.8654V18.5024C13.8654 18.8672 14.1614 19.1632 14.5262 19.1632C14.8909 19.1632 15.187 18.8672 15.187 18.5024V14.5376H19.1518C19.5165 14.5376 19.8126 14.2416 19.8126 13.8768C19.8126 13.512 19.5165 13.216 19.1518 13.216Z" fill="white"/>
<path d="M34.1659 33.8813L24.3471 23.6699C26.8515 21.1582 28.4031 17.6956 28.4031 13.8768C28.4031 6.22475 22.1783 0 14.5262 0C6.87416 0 0.649414 6.22475 0.649414 13.8768C0.649414 21.5289 6.87416 27.7537 14.5262 27.7537C17.8851 27.7537 20.9677 26.553 23.3704 24.5607L33.213 34.7971C33.3426 34.9326 33.5157 35 33.6895 35C33.8547 35 34.0192 34.9385 34.1474 34.8156C34.4104 34.5625 34.4183 34.1443 34.1659 33.8813ZM1.97102 13.8768C1.97102 6.95361 7.60303 1.3216 14.5262 1.3216C21.4495 1.3216 27.0815 6.95361 27.0815 13.8768C27.0815 20.8 21.4495 26.4321 14.5262 26.4321C7.60303 26.4321 1.97102 20.8 1.97102 13.8768Z" fill="white"/>
</svg>
