<svg width="22" height="22" viewBox="0 0 22 22" fill="none" xmlns="http://www.w3.org/2000/svg">
<path d="M11.6413 10.7229V0.618363C11.6413 0.274828 11.3664 0 11.0229 0C10.6794 0 10.4045 0.274828 10.4045 0.618363V10.7229C8.97086 11.0115 7.88528 12.2802 7.88528 13.801C7.88528 15.3217 8.97086 16.5905 10.4045 16.879V21.3771C10.4045 21.7206 10.6794 21.9954 11.0229 21.9954C11.3664 21.9954 11.6413 21.7206 11.6413 21.3771V16.879C13.075 16.5905 14.1605 15.3217 14.1605 13.801C14.1605 12.2848 13.0795 11.0115 11.6413 10.7229ZM11.0229 15.7019C9.97398 15.7019 9.12201 14.8499 9.12201 13.801C9.12201 12.752 9.97398 11.9001 11.0229 11.9001C12.0718 11.9001 12.9238 12.752 12.9238 13.801C12.9238 14.8499 12.0718 15.7019 11.0229 15.7019Z" fill="white"/>
<path d="M4.06974 5.53779V0.618363C4.06974 0.274828 3.79491 0 3.45137 0C3.10784 0 2.83301 0.274828 2.83301 0.618363V5.53779C1.39932 5.82636 0.313751 7.09515 0.313751 8.61587C0.313751 10.1366 1.39932 11.4054 2.83301 11.6939V21.3771C2.83301 21.7206 3.10784 21.9954 3.45137 21.9954C3.79491 21.9954 4.06974 21.7206 4.06974 21.3771V11.6894C5.50343 11.4008 6.589 10.132 6.589 8.61128C6.589 7.09057 5.50343 5.82636 4.06974 5.53779ZM3.45137 10.5168C2.40245 10.5168 1.55048 9.66479 1.55048 8.61587C1.55048 7.56694 2.40245 6.71497 3.45137 6.71497C4.5003 6.71497 5.35227 7.56694 5.35227 8.61587C5.35227 9.66479 4.49572 10.5168 3.45137 10.5168Z" fill="white"/>
<path d="M19.167 5.53779V0.618363C19.167 0.274828 18.8922 0 18.5486 0C18.2051 0 17.9303 0.274828 17.9303 0.618363V5.53779C16.4966 5.82636 15.411 7.09515 15.411 8.61587C15.411 10.1366 16.4966 11.4054 17.9303 11.6939V21.3816C17.9303 21.7252 18.2051 22 18.5486 22C18.8922 22 19.167 21.7252 19.167 21.3816V11.6894C20.6007 11.4008 21.6863 10.132 21.6863 8.61128C21.6863 7.09057 20.6053 5.82636 19.167 5.53779ZM18.5486 10.5168C17.4997 10.5168 16.6477 9.66479 16.6477 8.61587C16.6477 7.56694 17.4997 6.71497 18.5486 6.71497C19.5976 6.71497 20.4495 7.56694 20.4495 8.61587C20.4495 9.66479 19.5976 10.5168 18.5486 10.5168Z" fill="white"/>
</svg>
