<svg width="52" height="52" viewBox="0 0 52 52" fill="none" xmlns="http://www.w3.org/2000/svg">
<g clip-path="url(#clip0)">
<path d="M43.3583 51.9998H8.68743C8.2102 51.9998 7.82422 51.6142 7.82422 51.1366V0.86718C7.82422 0.389953 8.2102 0.00396729 8.68743 0.00396729H35.5486C35.7822 0.00396729 35.9956 0.0956042 36.1579 0.257853L43.9574 8.05731C44.12 8.21996 44.2112 8.4433 44.2112 8.66664V51.1267C44.2216 51.6142 43.8356 51.9998 43.3583 51.9998ZM9.56096 50.2635H42.4951V9.03239L35.2034 1.74071H9.56096V50.2635Z" fill="#E65100"/>
<path d="M43.3589 9.5402H35.5595C35.0823 9.5402 34.6963 9.15421 34.6963 8.67698V0.867211C34.6963 0.522084 34.9093 0.19719 35.2346 0.0650897C35.5595 -0.0670104 35.9352 0.00399835 36.1787 0.257884L43.9782 8.05734C44.2222 8.30131 44.3031 8.67698 44.1714 9.00188C44.019 9.32677 43.7041 9.5402 43.3589 9.5402ZM36.4227 7.80346H41.2668L36.4227 2.95939V7.80346Z" fill="#E65100"/>
<path d="M43.3583 51.9999H8.68743C8.2102 51.9999 7.82422 51.6143 7.82422 51.1367V35.5381C7.82422 35.0609 8.2102 34.6749 8.68743 34.6749H43.348C43.8253 34.6749 44.2112 35.0609 44.2112 35.5381V51.1367C44.2216 51.6143 43.8356 51.9999 43.3583 51.9999ZM9.56096 50.2635H42.4951V36.4014H9.56096V50.2635Z" fill="#E65100"/>
<path d="M13.8867 48.5371C13.4094 48.5371 13.0234 48.1511 13.0234 47.6738V39.0008C13.0234 38.5236 13.4094 38.1376 13.8867 38.1376C14.3643 38.1376 14.7499 38.5236 14.7499 39.0008V47.6635C14.7602 48.1408 14.3643 48.5371 13.8867 48.5371Z" fill="#E65100"/>
<path d="M38.157 39.864H32.9575C32.4802 39.864 32.0942 39.4785 32.0942 39.0008C32.0942 38.5236 32.4802 38.1376 32.9575 38.1376H38.157C38.6346 38.1376 39.0202 38.5236 39.0202 39.0008C39.0202 39.4785 38.6346 39.864 38.157 39.864Z" fill="#E65100"/>
<path d="M38.157 44.2008H32.9575C32.4802 44.2008 32.0942 43.8148 32.0942 43.3376C32.0942 42.86 32.4802 42.4744 32.9575 42.4744H38.157C38.6346 42.4744 39.0202 42.86 39.0202 43.3376C39.0202 43.8148 38.6346 44.2008 38.157 44.2008Z" fill="#E65100"/>
<path d="M32.9574 48.5371C32.4802 48.5371 32.0942 48.1511 32.0942 47.6738V39.0008C32.0942 38.5236 32.4802 38.1376 32.9574 38.1376C33.4347 38.1376 33.8207 38.5236 33.8207 39.0008V47.6635C33.8207 48.1408 33.4347 48.5371 32.9574 48.5371Z" fill="#E65100"/>
<path d="M36.2692 22.4578C35.934 21.8179 35.1113 21.5033 33.7609 21.5033C32.9687 21.5033 31.9936 21.6049 30.8563 21.808C29.2719 20.1526 27.6268 17.7355 26.4589 15.3593C26.6418 14.5976 26.8144 13.8257 26.9465 13.0537C27.0988 12.15 27.2817 11.1142 27.0885 10.2003C27.0075 9.8345 26.7941 9.50961 26.5506 9.23549C26.3371 9.00184 26.0428 8.67694 25.6973 8.67694C25.5144 8.67694 25.0169 8.75826 24.8241 8.81896C24.3263 8.9816 24.0625 9.36759 23.849 9.85473C23.2397 11.2666 24.0724 13.663 24.9356 15.5215C24.1942 18.4158 22.9656 21.879 21.6656 24.692C18.3957 26.1748 16.6589 27.6268 16.4967 29.0184C16.4356 29.5261 16.5574 30.2672 17.4614 30.9273C17.705 31.1102 17.9994 31.2018 18.2941 31.2018C19.0454 31.2018 19.8174 30.6329 20.7009 29.404C21.3407 28.5106 22.0413 27.2919 22.7625 25.7785C25.078 24.7832 27.9315 23.8796 30.389 23.3718C31.7501 24.6614 32.9786 25.3216 34.0247 25.3216C34.7967 25.3216 35.4568 24.9661 35.9443 24.306C36.4418 23.6154 36.5537 22.9961 36.2692 22.4578ZM18.3143 29.7594C17.9081 29.4547 17.9387 29.2516 17.9387 29.1707C17.9894 28.6931 18.7408 27.8505 20.589 26.8349C19.1978 29.3837 18.4464 29.7189 18.3143 29.7594ZM25.4029 10.2102C25.4434 10.2003 26.3066 11.1448 25.4842 12.9521C24.2553 11.7133 25.3113 10.2407 25.4029 10.2102ZM23.6154 23.8796C24.4889 21.8179 25.3113 19.5433 25.9206 17.4309C26.8854 19.147 28.0532 20.8226 29.2211 22.1634C27.3832 22.5796 25.4231 23.1889 23.6154 23.8796ZM34.7558 23.4733C34.492 23.8391 33.9132 23.849 33.7101 23.849C33.2531 23.849 33.0802 23.5749 32.3693 23.0469C32.9485 22.9759 33.4967 22.9553 33.9335 22.9553C34.7051 22.9553 34.8475 23.0671 34.949 23.1282C34.9387 23.179 34.8879 23.2905 34.7558 23.4733Z" fill="#E65100"/>
<path d="M16.4866 45.064H13.8867C13.4094 45.064 13.0234 44.678 13.0234 44.2007V39.0008C13.0234 38.5236 13.4094 38.1376 13.8867 38.1376H16.4866C18.3959 38.1376 19.9498 39.6915 19.9498 41.6008C19.9597 43.5101 18.4058 45.064 16.4866 45.064ZM14.7602 43.3375H16.4969C17.4514 43.3375 18.2333 42.5553 18.2333 41.6008C18.2333 40.6463 17.4514 39.8641 16.4969 39.8641H14.7602V43.3375Z" fill="#E65100"/>
<path d="M24.2865 48.5371H23.4233C22.946 48.5371 22.5601 48.1511 22.5601 47.6738V39.0008C22.5601 38.5236 22.946 38.1376 23.4233 38.1376H24.2865C27.1502 38.1376 29.486 40.4734 29.486 43.3375C29.486 46.2013 27.1606 48.5371 24.2865 48.5371ZM24.2865 39.8641V46.8003C26.1958 46.8003 27.7493 45.2465 27.7493 43.3375C27.7493 41.4282 26.2057 39.8641 24.2865 39.8641Z" fill="#E65100"/>
</g>
<defs>
<clipPath id="clip0">
<rect width="52" height="52" fill="white"/>
</clipPath>
</defs>
</svg>
